<?xml version="1.0" encoding="UTF-8"?>
<!-- Generator: Adobe Illustrator 27.8.1, SVG Export Plug-In . SVG Version: 6.00 Build 0)  -->
<svg version="1.1" id="Layer_1" xmlns="http://www.w3.org/2000/svg" xmlns:xlink="http://www.w3.org/1999/xlink" x="0px" y="0px" viewBox="0 0 1240 325" style="enable-background:new 0 0 1240 325;" xml:space="preserve">
<style type="text/css">
	.st0{clip-path:url(#SVGID_00000147931851591820657260000007819470483841298363_);}
	.st1{fill:#FFFFFF;}
	.st2{fill:url(#SVGID_00000037652488178367749600000000073206637495105705_);}
	.st3{fill:url(#SVGID_00000056396367204966510780000016664211470005876632_);}
</style>
<g>
	<defs>
		<rect id="SVGID_1_" width="1240" height="325"/>
	</defs>
	<clipPath id="SVGID_00000045578283437348167950000005126056353404128408_">
		<use xlink:href="#SVGID_1_" style="overflow:visible;"/>
	</clipPath>
	<g style="clip-path:url(#SVGID_00000045578283437348167950000005126056353404128408_);">
		<g>
			<path class="st1" d="M393,222.3c21.1,0,39.6-10.4,49.5-26.7l-22.8-13.2c-4.9,8.9-15,14.2-26.7,14.2c-20.5,0-33.7-13.7-33.7-34.3     s13.2-34.3,33.7-34.3c11.7,0,21.6,5.3,26.7,14.2l22.8-13.2c-10.1-16.3-28.5-26.7-49.5-26.7c-34.8,0-60.1,26.1-60.1,60.1     S358.2,222.3,393,222.3z M495.3,222.3c25.1,0,42.9-13.2,42.9-35.5c0-24.4-19.6-30.5-37.1-35.8c-18-5.4-20.8-9.1-20.8-14.4     c0-4.6,4.1-8.7,12.4-8.7c10.6,0,16,5.1,20,13.4l22.3-13c-8.4-17-23.3-26.1-42.2-26.1c-20,0-38.8,12.9-38.8,35.1     c0,22.1,16.8,30.4,34,35.1c17.3,4.8,23.9,7.6,23.9,14.7c0,4.5-3.1,9.4-15.7,9.4c-13,0-20.1-6.4-24.3-16l-22.8,13.2     C455.5,210.8,471.1,222.3,495.3,222.3z M666.1,104.5h-26.4l-31.4,51.3L577,104.5h-26.4V220H577v-67.2l29.9,49h3l29.9-49V220h26.4     V104.5z M685.9,104.5V220h26.4V104.5H685.9z M778.4,104.5h-46.2V220h46.2c31.8,0,56.1-25.1,56.1-57.8S810.2,104.5,778.4,104.5z      M778.4,194.6h-19.8v-64.7h19.8c18.1,0,30.7,12.5,30.7,32.3S796.5,194.6,778.4,194.6z M895.5,104.5h-46.2V220h46.2     c31.8,0,56.1-25.1,56.1-57.8S927.4,104.5,895.5,104.5z M895.5,194.6h-19.8v-64.7h19.8c18.1,0,30.7,12.5,30.7,32.3     S913.7,194.6,895.5,194.6z M992.9,194.6v-90.1h-26.4V220h67.7v-25.4H992.9z M1072.2,194.6v-20.5h41.2v-25.1h-41.2v-19.1h45.4     v-25.4h-71.8V220h72.6v-25.4H1072.2z M1194,220h28.4l-24.6-42.4c12.7-6.4,21.3-19.3,21.3-33.5c0-21.9-17.7-39.6-39.6-39.6h-46.2     V220h26.4v-37.9h12.5L1194,220z M1159.7,129.2h19.8c7.3,0,13.2,6.4,13.2,14.9c0,8.4-5.9,14.8-13.2,14.8h-19.8V129.2z"/>
		</g>
		<g>
			
				<linearGradient id="SVGID_00000018226389766750508160000016419892925967112605_" gradientUnits="userSpaceOnUse" x1="-18.3606" y1="335.9445" x2="197.6394" y2="-17.5555" gradientTransform="matrix(1 0 0 -1 0 326)">
				<stop offset="0" style="stop-color:#C67700"/>
				<stop offset="1" style="stop-color:#DCCC92"/>
			</linearGradient>
			<path style="fill:url(#SVGID_00000018226389766750508160000016419892925967112605_);" d="M114.5,21L7.3,82.9     C2.8,85.5,0,90.3,0,95.5v134.6c0,5.4,2.9,10.3,7.7,12.9l110.7,62.2c4.5,2.4,9.9,2.3,14.3-0.2c9.9-5.7,9.7-20.1-0.4-25.5     l-93.8-52.8c-4.7-2.5-7.7-7.5-7.7-12.8l-0.5-101.7c0-5.2,2.8-10.1,7.3-12.7l91.7-53c9.7-5.6,9.7-19.7,0-25.3l-0.2-0.1     c-2.3-1.3-4.8-2-7.3-2C119.3,19,116.8,19.7,114.5,21"/>
		</g>
		<g>
			
				<linearGradient id="SVGID_00000061433502710076073670000007846766656250948268_" gradientUnits="userSpaceOnUse" x1="55.6171" y1="303.9276" x2="286.6171" y2="-5.0726" gradientTransform="matrix(1 0 0 -1 0 326)">
				<stop offset="0" style="stop-color:#C67700"/>
				<stop offset="1" style="stop-color:#DCCC92"/>
			</linearGradient>
			<path style="fill:url(#SVGID_00000061433502710076073670000007846766656250948268_);" d="M172.1,54.2l-105.6,61     c-4.5,2.6-7.3,7.4-7.3,12.7v70c0,5.2,2.8,10,7.3,12.7l105.6,61c4.5,2.6,10.1,2.6,14.6,0l40.3-23.3c4.5-2.6,7.3-7.4,7.3-12.7V90.1     c0-5.2-2.8-10.1-7.3-12.7l-40.3-23.3c-2.3-1.3-4.8-2-7.3-2C176.9,52.2,174.3,52.9,172.1,54.2L172.1,54.2z M170.1,238.8L93.5,196     c-4.6-2.6-7.5-7.5-7.5-12.8v-41c0-5.2,2.8-10.1,7.3-12.7l75.4-43.3c4.5-2.6,10.1-2.6,14.6,0l17.5,10.1c4.5,2.6,7.3,7.4,7.3,12.7     v107.7c0,5.2-2.8,10.1-7.3,12.7l-16.2,9.4c-2.3,1.3-4.8,2-7.3,2C174.8,240.7,172.3,240,170.1,238.8"/>
		</g>
	</g>
</g>
</svg>